<?xml version="1.0" encoding="utf-8"?>
<!-- Generator: Adobe Illustrator 27.8.1, SVG Export Plug-In . SVG Version: 6.00 Build 0)  -->
<svg version="1.1" id="Layer_1" xmlns="http://www.w3.org/2000/svg" xmlns:xlink="http://www.w3.org/1999/xlink" x="0px" y="0px"
	 width="55px" height="54.9px" viewBox="0 0 55 54.9" style="enable-background:new 0 0 55 54.9;" xml:space="preserve">
<style type="text/css">
	.st0{fill:#5BC2EF;}
	.st1{fill:#FCFCFC;}
	.st2{fill:#FFFFFF;}
</style>
<rect x="7.2" y="16.4" class="st0" width="41.2" height="27.9"/>
<circle class="st1" cx="27.6" cy="15.8" r="12.2"/>
<path d="M-0.1,47.9c0.6-1,1.6-0.6,2.5-0.7c0-0.2,0-0.5,0-0.7c0-10.2,0-20.3,0-30.5c0-2.6,1.6-4.2,4.2-4.2c1.6,0,3.2,0,4.8,0
	c0.7,0,1,0.3,1,0.8c0,0.5-0.4,0.8-1,0.8c-1.7,0-3.4,0-5.1,0C5,13.4,4,14.4,4,15.8c0,10.4,0,20.7,0,31.1c0,0.1,0,0.2,0,0.4
	c15.7,0,31.3,0,47,0c0-0.2,0-0.4,0-0.6c0-10.2,0-20.5,0-30.7c0-1.7-0.9-2.5-2.6-2.5c-1.6,0-3.3,0-4.9,0c-0.6,0-1-0.3-1-0.8
	c0-0.5,0.4-0.8,1-0.8c1.7,0,3.3,0,5,0c2.5,0,4.1,1.6,4.1,4.1c0,10.2,0,20.4,0,30.6c0,0.2,0,0.5,0,0.7c0.8,0.1,1.8-0.3,2.4,0.7
	c0,1.3,0,2.6,0,3.9C55,52,55,52.1,54.9,52.3c-0.4,1.3-1.3,2.1-2.6,2.5c-0.3,0.1-0.5,0.1-0.8,0.2c-16,0-32,0-48,0
	c-0.8-0.1-1.5-0.3-2.2-0.8c-0.7-0.6-1.1-1.4-1.4-2.3C-0.1,50.5-0.1,49.2-0.1,47.9z M1.5,48.9c0,0.9,0,1.7,0,2.5
	c0.1,1.2,1,1.8,2.4,1.8c15.7,0,31.4,0,47.1,0c0.2,0,0.4,0,0.6,0c0.9-0.1,1.6-0.7,1.7-1.6c0.1-0.9,0-1.8,0-2.7
	C36.1,48.9,18.9,48.9,1.5,48.9z"/>
<path d="M36.7,5.6c0.7-0.7,1.4-1.4,2.1-2.1C39.2,3.1,39.5,3,40,3c1.8,0,3.5,0,5.3,0c0-0.2,0-0.3,0.1-0.5c0.1-0.7,0.6-1.3,1.3-1.3
	c0.9-0.1,1.9-0.1,2.8,0c0.8,0.1,1.3,0.7,1.3,1.5c0,0.8,0,1.5,0,2.3c0,0.9-0.7,1.5-1.6,1.5c-0.6,0-1.1,0-1.7,0c-1.4,0-1.9-0.4-2-1.9
	c-0.3,0-0.7,0-1,0c-1.3,0-2.6,0-3.9,0c-0.2,0-0.5,0.1-0.7,0.3c-0.6,0.6-1.2,1.2-1.9,1.8c0.2,0.3,0.5,0.6,0.7,0.8
	c4.3,5.6,3.6,13.5-1.5,18.3c-0.1,0.1-0.2,0.2-0.2,0.2c-0.4,0.3-0.7,0.3-1.1-0.1c-0.3-0.3-0.3-0.8,0-1.1c0.4-0.5,0.9-0.9,1.2-1.3
	c3.6-4.4,3.7-10.8,0.1-15.2c-0.1-0.1-0.2-0.2-0.3-0.3c-0.6,0.6-1.2,1.2-1.8,1.8c0.5,0.9,1.1,1.9,1.5,2.9c2.3,6.4-2.6,12.9-9.6,12.6
	c-0.4,0-0.7,0.1-1,0.4c-0.6,0.6-1.2,1.2-1.9,1.8c3,0.8,5.8,0.7,8.5-0.5c0.1-0.1,0.3-0.1,0.4-0.2c0.5-0.2,1-0.1,1.2,0.3
	c0.2,0.4,0.1,0.9-0.5,1.1c-1,0.4-1.9,0.8-2.9,1.1c-2.5,0.6-5.1,0.5-7.5-0.3c-0.3-0.1-0.6-0.1-0.8,0.2c-0.4,0.4-0.9,0.8-1.3,1.3
	c-0.4,0.4-0.8,0.5-1.3,0.5c-1.6,0-3.2,0-4.8,0c-0.1,0-0.3,0-0.5,0c0,0.2,0,0.3,0,0.4c-0.1,0.8-0.7,1.4-1.6,1.4c-0.8,0-1.5,0-2.3,0
	c-0.9,0-1.5-0.7-1.5-1.6c0-0.8,0-1.5,0-2.3c0-0.9,0.7-1.5,1.5-1.5c0.6,0,1.2,0,1.8,0c1.4,0,1.9,0.4,2.1,1.9c0.4,0,0.8,0,1.2,0
	c1.1,0,2.3,0,3.4,0c0.5,0,0.9-0.1,1.2-0.5c0.2-0.3,0.5-0.5,0.8-0.7c-4.1-2.3-6.6-5.7-7.2-10.2c-0.6-3.7,0.3-7.2,2.6-10.2
	C21.2,1.4,30.4,0.1,36.7,5.6z M32.5,9.8c-1.8-1.4-3.8-1.9-6-1.6c-3.5,0.5-6.2,3.3-6.7,6.9c-0.4,3.3,1.7,6.8,4.9,8.1
	c0.7,0.3,1.3,0.4,1.8-0.4c0.1-0.1,0.2-0.3,0.4-0.3c0.3-0.1,0.6-0.1,0.8,0c0.2,0.1,0.3,0.4,0.4,0.7c0,0.1,0,0.3-0.1,0.5
	c2.7,0.1,5.7-2,6.8-4.8c1.2-2.9,0.3-6.2-1.2-7.8c-0.7,0.7-1.1,0.7-1.5,0.3C31.7,10.9,31.8,10.6,32.5,9.8z M35.5,6.7
	c-2.9-2.4-6.2-3.4-9.9-2.8c-7.2,1.2-11.7,8.1-9.7,15.2c0.9,3.4,3,5.9,6.1,7.5c0.1,0.1,0.4,0.1,0.5,0c0.6-0.6,1.3-1.2,1.9-1.9
	c-5.8-2.1-7.8-8.6-5.2-13.3c1.2-2.2,3-3.8,5.5-4.6c3.3-1,6.3-0.4,8.9,1.7C34.2,8,34.8,7.4,35.5,6.7z M12.9,29.1c-0.7,0-1.4,0-2.1,0
	c0,0.7,0,1.4,0,2.1c0.7,0,1.4,0,2.1,0C12.9,30.4,12.9,29.8,12.9,29.1z M49.1,4.8c0-0.7,0-1.4,0-2.1c-0.7,0-1.4,0-2.1,0
	c0,0.7,0,1.4,0,2.1C47.7,4.8,48.4,4.8,49.1,4.8z"/>
<path d="M47.8,16.7c-1.3,0-2.6,0-3.9,0c-0.6,0-1-0.3-1-0.8c0-0.5,0.4-0.8,1-0.8c1.3,0,2.7,0,4,0c1,0,1.6,0.6,1.6,1.6
	c0,9.1,0,18.3,0,27.4c0,1-0.6,1.6-1.6,1.6c-1.5,0-3.1,0-4.6,0c-11.9,0-23.7,0-35.6,0c-0.2,0-0.4,0-0.6,0c-0.8-0.1-1.4-0.6-1.4-1.5
	c0-1.6,0-3.2,0-4.8c0-0.6,0.3-0.9,0.8-0.9c0.5,0,0.8,0.4,0.8,0.9c0,1.3,0,2.7,0,4c0,0.2,0,0.4,0,0.6c13.5,0,27,0,40.6,0
	C47.8,34.9,47.8,25.8,47.8,16.7z"/>
<path d="M7.3,16.7c0,0.3,0,0.5,0,0.7c0,6,0,12,0,18c0,0.2,0,0.4,0,0.5c0,0.5-0.3,0.7-0.8,0.7c-0.5,0-0.7-0.2-0.8-0.7
	c0-0.2,0-0.3,0-0.5c0-6.2,0-12.4,0-18.6c0-1.3,0.5-1.8,1.8-1.8c1.2,0,2.5,0,3.7,0c0.7,0,1,0.3,1,0.8c0,0.5-0.4,0.8-1,0.8
	C9.9,16.7,8.6,16.7,7.3,16.7z"/>
<path d="M6.8,2.1c1.8,0,3.4,0,5.1,0c0.2,0,0.4,0,0.5,0c0.5,0,0.8,0.3,0.8,0.8c0,0.5-0.3,0.8-0.8,0.8c-0.7,0-1.5,0-2.2,0
	c-1.1,0-2.3,0-3.5,0c0,0.2,0,0.4,0,0.6C6.7,5.3,6.1,5.9,5.2,5.9c-1,0-1.9,0-2.9,0c-0.9,0-1.6-0.7-1.6-1.6c0-0.9,0-1.9,0-2.8
	C0.8,0.7,1.4,0,2.3,0c1,0,2,0,3.1,0c0.8,0,1.4,0.7,1.5,1.5C6.8,1.7,6.8,1.9,6.8,2.1z M5.2,1.6c-0.9,0-1.8,0-2.7,0c0,0.9,0,1.8,0,2.7
	c0.9,0,1.8,0,2.7,0C5.2,3.4,5.2,2.5,5.2,1.6z"/>
<path d="M39.1,31.6c0.7,0,1.5,0,2.2,0c0.3,0,0.5,0,0.5-0.4c0,0,0-0.1,0-0.1c0.4-0.9,1.5-1.2,3-0.9c0.8,0.2,1.3,0.8,1.3,1.8
	c0,0.3,0,0.6,0,1c0,0.9-0.6,1.6-1.6,1.7c-0.4,0-0.9,0-1.3,0c-0.7,0-1.2-0.4-1.5-1.1c-0.1-0.3-0.3-0.4-0.5-0.4c-1.4,0-2.8,0-4.1,0
	c-0.2,0-0.3,0-0.5,0c-0.5,0-0.8-0.4-0.8-0.8c0-0.4,0.3-0.8,0.8-0.8C37.5,31.6,38.3,31.7,39.1,31.6C39.1,31.7,39.1,31.6,39.1,31.6z
	 M44.6,31.9c-0.4,0-0.8,0-1.2,0c0,0.4,0,0.8,0,1.2c0.4,0,0.8,0,1.2,0C44.6,32.7,44.6,32.3,44.6,31.9z"/>
<path d="M41.8,27c-0.5,0-0.9,0-1.3,0c-0.5,0-0.8-0.4-0.8-0.8c0-0.4,0.3-0.8,0.8-0.8c0.2,0,0.4,0,0.6,0c0.2,0,0.4,0,0.6,0
	c0.7-1.3,2-1.8,3.5-1.3c0.6,0.2,1.1,0.8,1.1,1.5c0,0.4,0,0.9,0,1.3c0,0.9-0.7,1.5-1.6,1.6c-0.3,0-0.7,0-1,0
	C42.6,28.4,42.1,28,41.8,27z M44.6,26.8c0-0.4,0-0.8,0-1.2c-0.4,0-0.8,0-1.2,0c0,0.4,0,0.8,0,1.2C43.8,26.8,44.2,26.8,44.6,26.8z"/>
<path d="M11.7,8.8c-0.6,1.6-1.4,1.5-3.2,1.4c-0.8-0.1-1.3-0.8-1.3-1.9C7.1,6.6,7.6,5.9,8.5,5.8c1.9-0.2,2.7-0.2,3.3,1.4
	c0.4,0,0.7,0,1.1,0c0.6,0,0.9,0.3,0.9,0.8c0,0.5-0.3,0.8-0.9,0.8C12.4,8.8,12.1,8.8,11.7,8.8z M10,7.4c-0.4,0-0.8,0-1.2,0
	c0,0.4,0,0.8,0,1.2c0.4,0,0.8,0,1.2,0C10,8.2,10,7.8,10,7.4z"/>
<path class="st2" d="M1.5,48.9c17.3,0,34.6,0,51.9,0c0,0.9,0.1,1.8,0,2.7c-0.1,0.9-0.8,1.5-1.7,1.6c-0.2,0-0.4,0-0.6,0
	c-15.7,0-31.4,0-47.1,0c-1.4,0-2.3-0.7-2.4-1.8C1.5,50.6,1.5,49.8,1.5,48.9z"/>
<path class="st2" d="M32.5,9.8c-0.7,0.8-0.8,1.2-0.4,1.5c0.4,0.4,0.8,0.3,1.5-0.3c1.6,1.6,2.4,4.9,1.2,7.8c-1.2,2.8-4.1,4.9-6.8,4.8
	c0-0.2,0.1-0.3,0.1-0.5c-0.1-0.3-0.2-0.6-0.4-0.7c-0.2-0.1-0.5-0.1-0.8,0c-0.1,0-0.3,0.2-0.4,0.3c-0.5,0.8-1.1,0.7-1.8,0.4
	c-3.2-1.3-5.3-4.7-4.9-8.1c0.4-3.6,3.2-6.4,6.7-6.9C28.7,7.8,30.7,8.4,32.5,9.8z M27.6,20.9c2.5,0,4.6-1.8,5-4.4
	c0.3-2.3-1.2-4.7-3.5-5.4c-0.9-0.3-1.8-0.3-2.8,0c-0.4,0.1-0.7,0.5-0.6,0.9c0.1,0.4,0.4,0.7,0.9,0.6c0.1,0,0.3,0,0.4-0.1
	c1.9-0.3,3.6,0.9,3.9,2.8c0.3,1.8-1,3.5-2.8,3.8c-1.8,0.3-3.5-0.9-3.8-2.7c-0.1-0.7,0-1.4,0.3-2.1c0.1-0.3,0-0.7-0.1-0.9
	c-0.1-0.2-0.6-0.3-0.8-0.2c-0.2,0.1-0.5,0.4-0.6,0.6C21.5,17.1,24,20.8,27.6,20.9z M27.5,14.8c-0.6,0-1,0.5-1,1.1
	c0,0.6,0.5,1.1,1.1,1.1c0.6,0,1.1-0.5,1.1-1.1C28.6,15.2,28.1,14.8,27.5,14.8z"/>
<path class="st2" d="M35.5,6.7c-0.7,0.7-1.3,1.3-1.9,1.9c-2.6-2.1-5.6-2.7-8.9-1.7c-2.4,0.8-4.3,2.3-5.5,4.6
	c-2.6,4.7-0.5,11.2,5.2,13.3c-0.6,0.6-1.2,1.3-1.9,1.9c-0.1,0.1-0.4,0.1-0.5,0c-3.1-1.6-5.2-4.1-6.1-7.5c-1.9-7.1,2.5-14,9.7-15.2
	C29.3,3.3,32.6,4.3,35.5,6.7z"/>
<path class="st2" d="M12.9,29.1c0,0.7,0,1.4,0,2.1c-0.7,0-1.4,0-2.1,0c0-0.7,0-1.3,0-2.1C11.5,29.1,12.2,29.1,12.9,29.1z"/>
<path class="st2" d="M49.1,4.8c-0.7,0-1.4,0-2.1,0c0-0.7,0-1.4,0-2.1c0.7,0,1.3,0,2.1,0C49.1,3.4,49.1,4.1,49.1,4.8z"/>
<path class="st2" d="M5.2,1.6c0,0.9,0,1.8,0,2.7c-0.9,0-1.8,0-2.7,0c0-0.9,0-1.8,0-2.7C3.3,1.6,4.2,1.6,5.2,1.6z"/>
<path class="st2" d="M44.6,31.9c0,0.4,0,0.8,0,1.2c-0.4,0-0.8,0-1.2,0c0-0.4,0-0.8,0-1.2C43.8,31.9,44.2,31.9,44.6,31.9z"/>
<path class="st2" d="M44.6,26.8c-0.4,0-0.8,0-1.2,0c0-0.4,0-0.7,0-1.2c0.4,0,0.8,0,1.2,0C44.6,26,44.6,26.3,44.6,26.8z"/>
<path class="st2" d="M10,7.4c0,0.4,0,0.8,0,1.2c-0.4,0-0.8,0-1.2,0c0-0.4,0-0.7,0-1.2C9.2,7.4,9.6,7.4,10,7.4z"/>
<path d="M27.6,20.9c-3.6,0-6-3.7-4.6-7c0.1-0.3,0.3-0.6,0.6-0.6c0.2-0.1,0.7,0,0.8,0.2c0.2,0.2,0.2,0.6,0.1,0.9
	c-0.2,0.7-0.4,1.4-0.3,2.1c0.4,1.8,2.1,3,3.8,2.7c1.8-0.3,3.1-2.1,2.8-3.8c-0.3-1.9-2-3.1-3.9-2.8c-0.1,0-0.3,0-0.4,0.1
	c-0.5,0-0.8-0.2-0.9-0.6c-0.1-0.4,0.1-0.8,0.6-0.9c0.9-0.3,1.8-0.2,2.8,0c2.3,0.7,3.8,3.1,3.5,5.4C32.1,19,30.1,20.9,27.6,20.9z"/>
<path d="M27.5,14.8c0.6,0,1.1,0.4,1.1,1c0,0.6-0.5,1.1-1.1,1.1c-0.6,0-1.1-0.5-1.1-1.1C26.5,15.3,26.9,14.8,27.5,14.8z"/>
</svg>
