<?xml version="1.0" encoding="utf-8"?>
<!-- Generator: Adobe Illustrator 27.8.1, SVG Export Plug-In . SVG Version: 6.00 Build 0)  -->
<svg version="1.1" id="Layer_1" xmlns="http://www.w3.org/2000/svg" xmlns:xlink="http://www.w3.org/1999/xlink" x="0px" y="0px"
	 width="49.4px" height="51.4px" viewBox="0 0 49.4 51.4" style="enable-background:new 0 0 49.4 51.4;" xml:space="preserve">
<style type="text/css">
	.st0{fill:#5BC2EF;}
	.st1{fill:#FFFFFF;}
</style>
<g>
	<path d="M11.2,19.2c0-1.1,0-2.1,0-3.2c0-0.3,0.2-0.7,0.4-0.9c0.7-0.8,1.5-1.6,2.2-2.4c-0.9-1.3-1.9-2.5-2.8-3.8
		c-0.2-0.3-0.4-0.5-0.6-0.8C9.9,7.5,10,7.2,10.8,7c2.8-0.8,5.7-1.6,8.5-2.5c1.2-0.4,2.4-0.4,3.6,0c3.5,1.1,7,2,10.4,3
		c0.4,0.1,0.6,0,0.8-0.3c1-1.8,2.1-3.6,3.1-5.4c1.4-2.4,4.2-2.4,5.5,0c2.1,3.6,4.1,7.1,6.2,10.7c1.2,2.2-0.2,4.6-2.7,4.6
		c-0.9,0-1.9,0-2.8,0c-0.4,0-0.8,0-1.2,0c0,0.2,0,0.4,0,0.6c0,2.3,0,4.7,0,7C42,37.1,33.6,48,21.7,51.3c-0.4,0.1-0.8,0.1-1.2,0
		C9.8,48,3.2,40.8,0.6,30C0.1,28,0,26,0,24c0-4.4,0-8.8,0-13.1c0-0.8,0-0.8,0.8-1C2.3,9.4,3.9,9,5.4,8.5c0.5-0.2,0.8-0.1,1.1,0.4
		c0.8,1.2,1.7,2.5,2.6,3.7c0.2,0.3,0.3,0.7,0.1,1c-0.2,0.6-0.4,1.1-0.6,1.7c0,0.2-0.1,0.4,0,0.5c0.8,1.2,1.6,2.3,2.3,3.5
		C11.1,19.3,11.1,19.3,11.2,19.2z M4.2,13.3c0,0.2,0,0.4,0,0.6c0,3.4,0,6.7,0,10.1c0,1.5,0.1,3.1,0.4,4.6c1.9,9.1,7.3,15.3,16,18.4
		c0.2,0.1,0.5,0.1,0.8,0c2.8-0.9,5.4-2.3,7.7-4.2c5.4-4.5,8.4-10.3,8.8-17.4c0.1-2.7,0.1-5.4,0.1-8c0-0.1,0-0.2-0.1-0.3
		c-1.4,0-2.7,0-4.1,0c-2.5,0-3.9-2.4-2.7-4.6c0.2-0.3,0.4-0.6,0.6-1c-0.1,0-0.2-0.1-0.3-0.1c-3.3-1-6.6-1.9-9.9-2.8
		c-0.2-0.1-0.5,0-0.8,0c-2.1,0.6-4.2,1.2-6.3,1.8c-0.2,0.1-0.4,0.2-0.7,0.2c0.5,0.6,0.9,1.2,1.3,1.7c0.3,0.4,0.3,0.7-0.1,1.1
		c-0.7,0.8-1.5,1.5-2.2,2.3c-0.2,0.2-0.3,0.5-0.3,0.7c0,1.6,0,3.2,0,4.8c0,0.3-0.2,0.6-0.4,0.7c-0.3,0.2-0.6-0.1-0.8-0.4
		C10,19.8,8.8,18,7.6,16.2c-0.2-0.2-0.2-0.6-0.1-0.9c0.2-0.6,0.4-1.2,0.6-1.8c0.1-0.5-0.4-1.3-0.8-1.1C6.2,12.7,5.2,13,4.2,13.3z
		 M39.1,17.1c0,2.3,0.1,4.5,0,6.8c-0.1,1.8-0.1,3.7-0.5,5.5c-2.1,9-7.5,15.2-16.1,18.6c-1,0.4-1.9,0.5-2.8,0
		c-0.6-0.3-1.3-0.5-1.9-0.8C8.3,42.4,3.4,34.8,3.1,24.2C2.9,20.8,3,17.4,3,14c0-1.9-0.2-1.6,1.6-2.1c0.7-0.2,1.4-0.4,2.2-0.6
		C6.4,10.7,6,10.2,5.6,9.7c-1.3,0.4-2.6,0.8-3.9,1.1c-0.4,0.1-0.5,0.3-0.5,0.7c0,4.2,0,8.3,0,12.5c0,1.6,0.1,3.2,0.4,4.7
		c2.2,10.8,8.5,18,19,21.4c0.3,0.1,0.6,0.1,0.9,0c4.9-1.4,9-4,12.4-7.7c4.2-4.7,6.6-10.1,7-16.4c0.2-2.9,0.1-5.9,0.1-8.8
		c0,0,0-0.1-0.1-0.1C40.3,17.1,39.8,17.1,39.1,17.1z M40,15.9c2.1,0,4.1,0,6.2,0c1.7,0,2.5-1.5,1.7-2.9c-2.1-3.6-4.1-7.2-6.2-10.8
		c-0.8-1.4-2.5-1.4-3.4,0c-2.1,3.6-4.1,7.1-6.2,10.7c-0.8,1.5,0,2.9,1.7,2.9C35.9,15.9,38,15.9,40,15.9z M33.2,8.7
		c-0.2-0.1-0.2-0.1-0.3-0.1c-3.8-1.1-7.6-2.2-11.5-3.3c-0.2-0.1-0.5,0-0.8,0c-1.7,0.5-3.5,1-5.2,1.5c-1.2,0.4-2.5,0.7-3.8,1.1
		c0.3,0.4,0.6,0.8,0.9,1.2c0.2,0.3,0.4,0.4,0.8,0.3c2.4-0.7,4.8-1.4,7.1-2.1c0.4-0.1,0.8-0.1,1.2,0c2.1,0.6,4.3,1.2,6.4,1.8
		c1.4,0.4,2.8,0.8,4.2,1.2c0.1-0.2,0.2-0.3,0.3-0.5C32.8,9.5,33,9.2,33.2,8.7z"/>
	<path class="st0" d="M4.2,13.3c1-0.3,2-0.6,3-0.9c0.4-0.1,1,0.7,0.8,1.1c-0.2,0.6-0.5,1.2-0.6,1.8c-0.1,0.3,0,0.7,0.1,0.9
		c1.2,1.8,2.4,3.5,3.6,5.3c0.2,0.3,0.5,0.5,0.8,0.4c0.2-0.1,0.4-0.5,0.4-0.7c0-1.6,0-3.2,0-4.8c0-0.2,0.1-0.5,0.3-0.7
		c0.7-0.8,1.4-1.5,2.2-2.3c0.4-0.4,0.4-0.7,0.1-1.1c-0.4-0.5-0.8-1.1-1.3-1.7c0.3-0.1,0.5-0.2,0.7-0.2c2.1-0.6,4.2-1.2,6.3-1.8
		c0.2-0.1,0.5-0.1,0.8,0c3.3,0.9,6.6,1.9,9.9,2.8c0.1,0,0.2,0.1,0.3,0.1c-0.2,0.4-0.4,0.7-0.6,1c-1.2,2.2,0.2,4.6,2.7,4.6
		c1.4,0,2.7,0,4.1,0c0,0.1,0.1,0.2,0.1,0.3c0,2.7,0.1,5.4-0.1,8c-0.4,7-3.4,12.8-8.8,17.4c-2.3,1.9-4.8,3.3-7.7,4.2
		c-0.2,0.1-0.5,0.1-0.8,0c-8.8-3.2-14.1-9.3-16-18.4c-0.3-1.5-0.4-3.1-0.4-4.6c-0.1-3.4,0-6.7,0-10.1C4.2,13.7,4.2,13.5,4.2,13.3z
		 M27.1,24.3c0-4.4-3.3-6.4-5.9-6.4c-1.5,0-2.8,0.5-3.9,1.4c-1.5,1.3-2.2,3-2.1,5c-0.3,0-0.5,0.1-0.8,0.1c-1.1,0.2-1.9,1-1.9,2.1
		c0,3,0,6,0,9c0,0.9,0.4,1.6,1.2,1.9c0.5,0.2,1,0.3,1.5,0.3c3.9,0,7.8,0,11.7,0c0.2,0,0.5,0,0.7-0.1c1.2-0.2,2-1,2-2.3
		c0-2.9,0-5.9,0-8.8c0-1.2-0.7-2.1-2-2.3C27.5,24.3,27.3,24.3,27.1,24.3z"/>
	<path class="st1" d="M39.1,17.1c0.6,0,1.2,0,1.8,0c0,0,0.1,0.1,0.1,0.1c0,2.9,0.1,5.9-0.1,8.8c-0.4,6.3-2.8,11.7-7,16.4
		c-3.4,3.8-7.5,6.3-12.4,7.7c-0.3,0.1-0.6,0.1-0.9,0c-10.6-3.4-16.9-10.6-19-21.4c-0.3-1.5-0.4-3.1-0.4-4.7c-0.1-4.2,0-8.3,0-12.5
		c0-0.4,0.1-0.6,0.5-0.7c1.3-0.3,2.6-0.7,3.9-1.1c0.4,0.5,0.7,1,1.1,1.6c-0.8,0.2-1.5,0.4-2.2,0.6C2.9,12.4,3,12.1,3,14
		c0,3.4-0.1,6.8,0,10.2c0.3,10.6,5.3,18.2,14.7,22.9c0.6,0.3,1.3,0.5,1.9,0.8c1,0.5,1.8,0.4,2.8,0c8.6-3.4,14-9.6,16.1-18.6
		c0.4-1.8,0.5-3.6,0.5-5.5C39.2,21.6,39.1,19.4,39.1,17.1z"/>
	<path class="st1" d="M40,15.9c-2.1,0-4.1,0-6.2,0c-1.7,0-2.5-1.5-1.7-2.9c2.1-3.6,4.1-7.1,6.2-10.7c0.8-1.4,2.5-1.4,3.4,0
		c2.1,3.6,4.2,7.2,6.2,10.8c0.8,1.4-0.1,2.9-1.7,2.9C44.1,15.9,42.1,15.9,40,15.9z M40.6,8.5c0-0.7,0-1.4,0-2.1
		c0-0.4-0.1-0.7-0.5-0.7c-0.5,0-0.6,0.3-0.6,0.7c0,1.4,0,2.8,0,4.2c0,0.4,0.2,0.7,0.6,0.7c0.4,0,0.6-0.3,0.6-0.7
		C40.6,9.9,40.6,9.2,40.6,8.5z M40.7,12.9c0-0.1,0-0.2,0-0.3c-0.2-0.2-0.4-0.4-0.7-0.4c-0.3-0.1-0.6,0.2-0.6,0.6
		c0,0.3,0.2,0.6,0.6,0.6C40.2,13.3,40.4,13,40.7,12.9z"/>
	<path class="st1" d="M33.2,8.7c-0.2,0.4-0.4,0.8-0.7,1.2c-0.1,0.2-0.2,0.3-0.3,0.5c-1.4-0.4-2.8-0.8-4.2-1.2
		c-2.1-0.6-4.3-1.3-6.4-1.8c-0.4-0.1-0.8-0.1-1.2,0c-2.4,0.7-4.8,1.4-7.1,2.1c-0.4,0.1-0.6,0.1-0.8-0.3c-0.2-0.4-0.6-0.8-0.9-1.2
		c1.3-0.4,2.6-0.7,3.8-1.1c1.7-0.5,3.5-1,5.2-1.5c0.2-0.1,0.5-0.1,0.8,0c3.8,1.1,7.6,2.2,11.5,3.3C33,8.6,33.1,8.7,33.2,8.7z"/>
	<path d="M27.1,24.3c0.2,0,0.4,0.1,0.6,0.1c1.2,0.2,2,1,2,2.3c0,2.9,0,5.9,0,8.8c0,1.2-0.7,2.1-2,2.3c-0.2,0-0.5,0.1-0.7,0.1
		c-3.9,0-7.8,0-11.7,0c-0.5,0-1-0.1-1.5-0.3c-0.8-0.3-1.2-1-1.2-1.9c0-3,0-6,0-9c0-1.1,0.7-1.9,1.9-2.1c0.2,0,0.5-0.1,0.8-0.1
		c-0.1-2,0.6-3.7,2.1-5c1.1-1,2.5-1.4,3.9-1.4C23.8,17.8,27.1,19.8,27.1,24.3z M21.1,36.5c1.9,0,3.9,0,5.8,0c0.2,0,0.5,0,0.7-0.1
		c0.6-0.1,0.8-0.4,0.8-1c0-2.9,0-5.9,0-8.8c0-0.6-0.3-0.9-0.8-1.1c-0.2-0.1-0.5-0.1-0.7-0.1c-3.9,0-7.8,0-11.6,0
		c-0.3,0-0.5,0-0.8,0.1c-0.5,0.1-0.8,0.4-0.8,0.9c0,3,0,6,0,9c0,0.5,0.2,0.8,0.6,0.9c0.3,0.1,0.6,0.1,0.9,0.1
		C17.2,36.6,19.1,36.5,21.1,36.5z M17.7,24.3c0.3-2.7,1.2-3.9,3.2-4c0.8,0,1.5,0.2,2.1,0.6c1.1,0.8,1.5,2,1.4,3.4c0.5,0,1,0,1.5,0
		c0.1-2-0.6-3.6-2.3-4.6c-1.7-1-3.5-1-5.1,0.1c-1.6,1-2.2,2.6-2.1,4.5C16.8,24.3,17.2,24.3,17.7,24.3z M23.2,24.3
		c0.1-1,0-1.9-0.9-2.5c-0.8-0.5-1.6-0.5-2.3,0c-0.9,0.6-1,1.5-0.9,2.5C20.4,24.3,21.8,24.3,23.2,24.3z"/>
	<path d="M40.6,8.5c0,0.7,0,1.4,0,2.1c0,0.4-0.1,0.7-0.6,0.7c-0.4,0-0.6-0.3-0.6-0.7c0-1.4,0-2.8,0-4.2c0-0.4,0.2-0.7,0.6-0.7
		c0.4,0,0.6,0.3,0.5,0.7C40.6,7.1,40.6,7.8,40.6,8.5z"/>
	<path d="M40.7,12.9c-0.2,0.1-0.4,0.4-0.7,0.4c-0.4,0.1-0.6-0.2-0.6-0.6c0-0.3,0.2-0.6,0.6-0.6c0.2,0,0.4,0.3,0.7,0.4
		C40.7,12.7,40.7,12.8,40.7,12.9z"/>
	<path class="st1" d="M21.1,36.5c-1.9,0-3.9,0-5.8,0c-0.3,0-0.6,0-0.9-0.1c-0.4-0.1-0.6-0.4-0.6-0.9c0-3,0-6,0-9
		c0-0.5,0.3-0.8,0.8-0.9c0.3-0.1,0.5-0.1,0.8-0.1c3.9,0,7.8,0,11.6,0c0.2,0,0.5,0,0.7,0.1c0.6,0.1,0.8,0.4,0.8,1.1
		c0,2.9,0,5.9,0,8.8c0,0.6-0.2,0.9-0.8,1c-0.2,0.1-0.5,0.1-0.7,0.1C25,36.6,23,36.5,21.1,36.5z"/>
	<path class="st1" d="M17.7,24.3c-0.5,0-0.9,0-1.4,0c-0.1-1.9,0.5-3.4,2.1-4.5c1.7-1.1,3.4-1.1,5.1-0.1c1.7,1,2.4,2.6,2.3,4.6
		c-0.5,0-0.9,0-1.5,0c0.1-1.3-0.2-2.5-1.4-3.4c-0.6-0.5-1.3-0.7-2.1-0.6C19,20.3,18,21.5,17.7,24.3z"/>
	<path class="st1" d="M23.2,24.3c-1.4,0-2.8,0-4.2,0c-0.1-1,0-1.9,0.9-2.5c0.8-0.5,1.6-0.5,2.3,0C23.1,22.3,23.3,23.2,23.2,24.3z"/>
</g>
</svg>
